<svg xmlns="http://www.w3.org/2000/svg" viewBox="0 0 64 64">
<defs><linearGradient id="g" x1="0" y1="0" x2="1" y2="1"><stop offset="0" stop-color="#0a91d8"/><stop offset="1" stop-color="#0fb98a"/></linearGradient></defs>
<rect width="64" height="64" rx="16" fill="url(#g)"/>
<g stroke="#fff" stroke-width="3.4" stroke-linecap="round">
<line x1="32" y1="11" x2="32" y2="53"/><line x1="13.8" y1="21.5" x2="50.2" y2="42.5"/><line x1="50.2" y1="21.5" x2="13.8" y2="42.5"/>
<line x1="32" y1="11" x2="27" y2="16"/><line x1="32" y1="11" x2="37" y2="16"/><line x1="32" y1="53" x2="27" y2="48"/><line x1="32" y1="53" x2="37" y2="48"/>
<line x1="13.8" y1="21.5" x2="13.5" y2="28"/><line x1="13.8" y1="21.5" x2="20" y2="20"/><line x1="50.2" y1="21.5" x2="50.5" y2="28"/><line x1="50.2" y1="21.5" x2="44" y2="20"/>
<line x1="13.8" y1="42.5" x2="13.5" y2="36"/><line x1="13.8" y1="42.5" x2="20" y2="44"/><line x1="50.2" y1="42.5" x2="50.5" y2="36"/><line x1="50.2" y1="42.5" x2="44" y2="44"/></g>
<circle cx="32" cy="32" r="4" fill="#fff"/></svg>
